<svg width="57" height="57" viewBox="0 0 57 57" fill="none" xmlns="http://www.w3.org/2000/svg">
<path d="M4.24658 0.99292L8.65498 50.484L28.436 55.9994L48.2722 50.4638L52.6841 0.99292H4.24658ZM43.5258 12.3316L42.0584 28.8186L42.0628 28.9076L42.0566 29.1124V29.1106L41.0141 40.6387L40.8992 41.6628L28.4654 45.1019V45.1023L28.4557 45.1106L16.0434 41.6523L15.2029 32.1213H21.2896L21.7215 36.9677L28.4671 38.796L28.4654 38.7995V38.7986L35.236 36.9445L35.9515 29.0523H21.7977L21.6763 27.7182L21.3997 24.5926L21.2545 22.9143H36.4895L37.0436 16.7763H13.8394L13.7179 15.4431L13.4417 12.3166L13.2962 10.6383H43.6709L43.5258 12.3316Z" fill="#1572B6"/>
</svg>
