<svg width="56" height="56" viewBox="0 0 56 56" fill="none" xmlns="http://www.w3.org/2000/svg">
<path d="M19.9016 55.9747C25.0185 55.9747 29.1465 51.8468 29.1465 46.7298V37.4849H19.9016C14.7846 37.4849 10.6566 41.6128 10.6566 46.7298C10.6566 51.8468 14.7846 55.9747 19.9016 55.9747Z" fill="#0ACF83"/>
<path d="M10.6566 28.2401C10.6566 23.1231 14.7846 18.9951 19.9016 18.9951H29.1465V37.485H19.9016C14.7846 37.485 10.6566 33.357 10.6566 28.2401Z" fill="#A259FF"/>
<path d="M10.6566 9.75006C10.6566 4.6331 14.7846 0.505127 19.9016 0.505127H29.1465V18.995H19.9016C14.7846 18.995 10.6566 14.867 10.6566 9.75006Z" fill="#F24E1E"/>
<path d="M29.1465 0.505127H38.3914C43.5084 0.505127 47.6364 4.6331 47.6364 9.75006C47.6364 14.867 43.5084 18.995 38.3914 18.995H29.1465V0.505127Z" fill="#FF7262"/>
<path d="M47.6364 28.2401C47.6364 33.357 43.5084 37.485 38.3914 37.485C33.2745 37.485 29.1465 33.357 29.1465 28.2401C29.1465 23.1231 33.2745 18.9951 38.3914 18.9951C43.5084 18.9951 47.6364 23.1231 47.6364 28.2401Z" fill="#1ABCFE"/>
</svg>
