<svg width="66" height="66" viewBox="0 0 66 66" fill="none" xmlns="http://www.w3.org/2000/svg">
<path d="M22.7584 51.58C20.6186 49.8954 18.337 48.2816 16.7739 46.0102C13.4907 42.0037 10.9613 37.3597 9.23629 32.483C8.18912 29.3112 7.835 25.9117 6.48431 22.8612C5.07797 20.6455 6.72713 18.2274 9.15029 17.5242C10.2278 17.3168 12.1299 16.2949 9.83828 17.0284C7.78442 18.536 7.58712 15.6575 9.69158 15.4754C11.1283 15.2832 11.6594 14.1095 11.1687 13.0472C9.62582 12.0405 14.9122 10.9326 12.2513 9.43014C9.47911 6.4404 16.1264 5.8637 14.4873 9.2632C14.0978 11.8735 19.1313 8.78262 17.9627 11.7977C19.1515 13.2445 22.4144 12.1265 22.3284 14.1601C24.0585 14.2815 24.6555 15.7334 26.2743 15.8447C27.9589 16.6035 31.0093 17.2055 31.581 19.1025C29.9116 20.4229 26.0416 16.3708 25.8595 20.0334C26.3653 25.4412 26.2338 31.0109 28.2118 36.1608C29.1477 39.277 31.414 41.7305 33.4628 44.1587C35.4256 46.5364 38.0764 48.2108 40.7879 49.6222C43.1605 50.7402 45.7203 51.4838 48.3104 51.9493C49.3575 51.1449 51.2141 48.1653 52.8481 49.4199C52.929 50.8363 49.6004 52.3742 52.6913 52.2224C54.5074 51.6761 55.767 53.6237 57.2644 51.8633C58.6404 53.4972 62.991 50.8211 62.0096 54.1549C60.6842 55.0098 58.7517 54.4938 57.4212 55.6725C55.2308 54.5798 53.4906 56.6489 51.0674 56.3909C48.3761 56.8715 45.6393 57.0688 42.9076 57.0688C38.4305 56.7146 33.8574 56.5679 29.603 55.0098C27.2051 54.3117 24.8629 52.9458 22.7584 51.58ZM26.5373 53.219C28.8796 54.2308 31.1712 55.2982 33.736 55.6219C37.8083 56.1885 42.0172 57.0586 46.1047 56.2644C44.2532 55.4297 42.341 56.5882 40.4996 55.6675C38.2889 56.143 35.9163 55.5461 33.6702 55.2526C31.1155 54.1144 28.3585 53.3303 25.9657 51.8531C22.976 50.7604 27.5137 53.2544 28.318 53.4568C30.1847 54.5191 26.2642 52.9104 25.7077 52.4703C24.1445 51.5901 23.9422 51.7773 25.5509 52.6676C25.8746 52.8548 26.1984 53.0571 26.5373 53.219ZM22.0805 50.0674C24.3519 50.9071 22.0704 48.4688 21.0334 48.6105C20.573 47.8112 19.2729 47.3053 20.1886 46.8753C18.5394 47.4469 18.4585 44.7 17.6845 45.0895C15.9392 44.5381 17.0066 42.5854 14.9274 41.3865C14.7402 40.1218 12.8634 39.0291 12.2665 37.122C12.0034 36.1456 10.1469 33.3481 11.2851 35.9534C12.2564 38.4625 13.9612 40.6125 15.3827 42.7574C16.4855 44.8012 17.7907 46.936 19.794 48.2108C20.4719 48.8685 21.1244 49.865 22.0805 50.0674ZM15.5395 42.889C15.6205 42.545 15.9544 43.6275 15.5395 42.889V42.889ZM24.7971 51.0741C24.0737 50.7908 25.303 50.8515 24.7971 51.0741V51.0741ZM26.0315 51.5243C25.4699 51.8734 25.905 50.9021 26.0315 51.5243V51.5243ZM27.5744 52.1668C26.4412 51.7267 28.3079 51.4687 27.5744 52.1668V52.1668ZM30.2151 53.6389C28.7885 53.391 30.6653 52.9812 30.2151 53.6389V53.6389ZM25.1411 50.1028C23.669 50.0927 26.2793 49.3642 25.1411 50.1028V50.1028ZM26.2996 50.6795C25.8848 50.8515 26.2642 50.29 26.2996 50.6795V50.6795ZM32.0818 54.2864C33.0126 54.8732 37.5099 55.5713 34.6921 54.5292C34.2216 54.6304 29.4664 53.1836 32.0818 54.2864ZM22.9001 47.1383C21.4583 46.7084 22.809 46.7488 22.9001 47.1383V47.1383ZM25.5913 48.7066C24.1395 48.3322 26.2945 48.2209 25.5913 48.7066V48.7066ZM27.8577 50.0977C26.2237 49.7183 28.8593 49.7183 27.8577 50.0977V50.0977ZM21.8023 45.9445C22.895 46.7792 26.2035 46.0507 23.4717 45.4437C22.2323 44.781 19.4297 44.3307 21.3369 45.8433L21.8023 45.9445ZM29.3905 50.5783C27.4833 50.1332 29.8458 49.8043 29.3905 50.5783V50.5783ZM27.0837 48.742C29.7497 49.4957 24.8426 47.0523 26.426 48.4638L26.7802 48.6256L27.0837 48.742ZM31.7074 51.413C29.4259 51.069 34.2318 51.4383 31.7074 51.413V51.413ZM20.831 44.4825C20.2088 44.523 20.7349 44.012 20.831 44.4825V44.4825ZM35.977 53.8109C35.1575 54.4432 36.0479 52.961 35.977 53.8109V53.8109ZM25.1411 47.1232C24.3519 47.1029 24.9894 46.678 25.1411 47.1232V47.1232ZM21.0739 44.1891C19.0857 43.5517 22.5207 44.1031 21.0739 44.1891V44.1891ZM16.2478 41.0729C14.6694 39.8233 16.0657 40.3747 16.2478 41.0729V41.0729ZM28.9099 49.1062C28.6469 48.8027 28.7834 49.172 28.9099 49.1062V49.1062ZM36.7915 53.9424C36.3615 54.1195 36.7662 53.4821 36.7915 53.9424V53.9424ZM28.2118 48.3879C26.9775 48.2058 28.3534 47.7909 28.2118 48.3879V48.3879ZM22.3436 44.6646C20.6135 43.9361 23.4211 44.5482 22.3436 44.6646V44.6646ZM32.274 50.8363C30.635 50.5126 33.9535 50.1686 32.274 50.8363V50.8363ZM27.109 47.3306C29.0465 47.5785 24.8022 46.0102 26.684 47.1889L27.109 47.3306ZM33.8422 51.4737C35.6533 50.3911 35.0563 54.0082 36.9129 51.7773C38.7442 50.4417 35.3295 53.4315 37.5857 52.015C39.2197 50.9223 41.6277 52.531 43.1504 53.0571C44.2431 53.0015 45.3105 54.0031 46.4336 53.3961C48.5937 52.8143 42.2044 52.531 43.8789 51.499C41.9009 52.0757 40.4389 50.811 39.4676 49.5463C37.2468 49.0354 34.682 47.9022 33.5741 45.9344C33.1239 45.1958 34.2267 46.0406 33.1846 44.8315C31.8491 43.6427 31.1813 42.292 30.2859 40.8452C29.2134 40.2736 29.087 38.589 28.9807 40.7896C28.9909 39.4035 27.6857 38.4676 27.367 38.8571C27.3619 37.5216 28.7632 38.1894 27.7818 37.2029C27.5693 35.8168 26.8763 34.375 26.6689 32.8119C26.3451 32.0581 26.6233 30.4443 25.561 32.1492C25.1765 33.9551 25.4345 29.9334 26.0365 31.2588C26.8257 29.9081 25.7532 30.0649 25.7077 30.2521C26.2237 29.1088 26.0315 27.49 25.5711 28.1072C25.8443 26.8981 26.0062 23.6555 25.1614 24.2322C25.6723 22.9675 26.1326 18.4449 23.9118 20.1699C23.0114 20.1851 21.4583 20.4937 20.7197 20.863C23.0265 22.1328 20.487 21.3234 19.5461 21.121C19.4247 22.2997 18.4939 21.7888 17.3303 21.7989C19.1869 22.0265 16.4248 23.6959 15.3625 23.0484C13.9764 23.7111 16.5564 25.3603 15.3878 25.8712C15.5294 26.6401 13.2681 25.593 13.4452 27.3686C12.1046 26.802 13.2631 29.4731 13.9308 28.5726C16.2124 29.1898 15.5395 30.6012 15.5952 31.9367C15.2208 32.7157 13.7588 30.1054 15.2714 30.2268C14.0775 28.2893 13.9511 29.5287 12.9646 30.4241C12.737 30.4899 15.4889 31.704 13.7588 32.306C15.2815 32.5437 15.3271 33.8742 15.6357 34.714C16.5513 35.665 16.3641 33.6617 17.4568 34.805C16.7638 33.7831 13.7892 31.9316 16.182 32.5235C16.1668 31.4966 15.7469 30.6669 16.4855 30.6872C17.214 29.3719 15.7217 33.9349 17.3607 32.2605C17.816 32.0632 17.9273 30.9452 18.7418 32.3667C19.9255 33.5302 19.1717 34.375 17.4973 33.3076C17.7958 34.3244 19.7333 34.6836 19.369 36.2721C19.7535 37.6683 20.2948 37.1523 20.7653 37.0714C21.1346 38.4271 21.342 37.4305 21.3622 36.783C23.0518 37.1472 22.6573 38.1438 23.1834 38.8419C24.3469 39.368 21.519 35.2805 23.5172 37.6126C25.6217 39.5097 24.3064 40.3039 22.4195 40.0004C23.6134 39.9043 23.9978 41.6142 25.4902 41.5534C26.851 42.201 27.7767 44.6899 25.4295 43.6528C24.615 42.9193 21.7315 42.0138 24.0889 43.41C26.2642 44.4167 27.9892 45.0187 30.0886 46.2834C31.586 47.3559 32.2386 48.5801 32.8052 48.8229C31.5455 49.4249 29.006 48.3423 30.893 48.0085C29.7143 47.796 28.3939 47.1991 29.522 48.6661C30.4781 49.4654 32.9165 49.3844 33.3566 49.4704C32.9873 50.2849 32.3499 50.3507 33.3718 50.4114C32.2335 51.0286 33.736 51.1247 33.8422 51.4737ZM31.5152 44.8973C30.8221 44.1739 30.6451 42.8181 31.3938 43.9968C31.7732 44.1486 32.6231 46.2126 31.5152 44.8973ZM39.0983 49.7133C39.1084 50.0421 39.5283 49.6829 39.0983 49.7133V49.7133ZM30.4225 43.1217C30.3921 42.0239 30.6704 43.9665 30.4225 43.1217V43.1217ZM29.6687 42.1049C28.7936 40.4253 30.7665 42.5854 29.6687 42.1049V42.1049ZM20.5326 35.8016C20.7855 36.6768 21.0435 35.665 20.5326 35.8016V35.8016ZM27.802 39.7424C28.1157 38.5637 28.1713 40.7339 27.802 39.7424V39.7424ZM22.6674 36.1709C22.3082 35.5183 23.4262 36.783 22.6674 36.1709V36.1709ZM27.0736 37.5823C26.249 35.7358 27.6604 36.5705 27.2557 37.8858L27.0736 37.5823ZM19.4753 32.5185C19.106 31.9114 18.4989 30.1307 18.6912 29.5894C18.8682 30.4747 20.573 33.3987 19.5259 30.7985C18.3725 28.6232 20.9069 31.5067 21.17 32.048C21.2914 32.5893 20.4567 31.9013 21.0233 33.166C19.9913 31.7242 20.4162 33.9653 19.4753 32.5185ZM17.128 30.8996C17.2241 29.4882 17.6642 31.8659 17.128 30.8996V30.8996ZM18.1802 31.2639C18.6861 30.1965 19.0352 32.7461 18.1802 31.2639V31.2639ZM15.6407 29.296C14.7655 28.4259 14.1332 27.6266 15.6812 28.7547C16.2781 28.78 14.3558 26.9335 15.8228 28.1679C17.3708 28.4512 16.5867 30.7023 15.6407 29.296ZM16.9762 29.2606C17.2443 29.7564 17.4821 28.7598 16.9762 29.2606V29.2606ZM17.7958 29.5236C17.0268 28.0819 18.7316 30.1307 17.7958 29.5236V29.5236ZM16.1668 27.9655C13.6273 25.7043 19.3589 29.1493 16.5816 28.3854L16.1668 27.9655ZM23.4464 32.1947C22.3436 31.537 23.153 27.5507 23.5274 30.2774C24.5948 29.9334 23.4667 31.6838 24.2659 31.6686C24.1445 32.7714 23.7854 33.171 23.4464 32.1947ZM26.1428 33.7882C26.249 32.5842 26.3704 34.6077 26.1428 33.7882V33.7882ZM25.6723 33.3228C25.6875 33.9299 25.7937 32.8119 25.6723 33.3228V33.3228ZM16.6626 27.2219C15.0286 24.9707 21.4077 29.5034 17.7098 27.7935C17.3202 27.6873 16.8548 27.6519 16.6626 27.2219ZM21.8529 29.9688C21.6961 28.0718 22.1969 30.2825 21.8529 29.9688V29.9688ZM25.7886 32.4982C25.8139 33.2115 26.0922 31.4156 25.7886 32.4982V32.4982ZM16.9155 26.3619C17.8868 26.1545 20.9373 28.0667 18.1347 26.9083C17.8211 26.5592 17.1583 26.716 16.9155 26.3619ZM25.2474 30.5152C25.3485 28.5726 25.8291 29.3567 25.2524 30.7934L25.2474 30.5152ZM17.6339 25.684C18.0285 25.1023 16.5816 23.0636 17.8413 24.9505C18.3876 25.3805 19.4146 25.6739 18.504 25.856C19.9407 27.1207 18.16 26.2 17.6339 25.684ZM24.8376 29.9081C25.0754 31.2032 25.1108 27.6974 24.8376 29.9081V29.9081ZM16.8093 23.6453C16.9712 24.045 17.1128 23.5138 16.8093 23.6453V23.6453ZM18.6861 24.7633C19.1717 23.7465 19.5815 25.8914 18.6861 24.7633V24.7633ZM23.9827 27.7075C23.9827 27.318 24.0838 28.2741 23.9827 27.7075V27.7075ZM23.6791 27.0297C22.9456 25.2136 24.3621 27.9908 23.6791 27.0297V27.0297ZM23.2289 25.8409C23.1024 25.0921 23.6488 26.7818 23.2289 25.8409V25.8409ZM23.9624 24.647C23.4565 23.7566 24.5998 20.7264 24.7263 22.6083C24.1951 24.0703 24.5745 24.8898 24.9438 22.927C25.6318 21.379 24.7971 25.9724 23.9624 24.647ZM24.7162 20.1396C24.7668 20.4684 24.9388 19.8715 24.7162 20.1396V20.1396ZM23.4565 44.9884C23.1581 44.7253 23.492 45.1553 23.4565 44.9884V44.9884ZM26.0517 46.3036C27.4985 46.678 27.4884 46.0811 26.1832 45.904C25.4801 45.2514 23.2643 44.5584 25.2474 45.8231C25.3839 46.1519 25.7988 46.1418 26.0517 46.3036ZM20.9221 42.894C21.7163 43.491 23.9219 44.5735 22.0553 43.1217C22.6825 42.3932 20.8513 42.0037 21.4583 41.513C19.9103 40.567 20.2392 40.653 21.3217 40.6833C19.4652 39.8537 21.5898 39.9144 21.4887 39.4895C20.7703 39.3478 17.9323 38.2248 19.6017 39.5805C17.902 38.7155 19.197 39.9043 18.681 39.7778C16.9408 39.3023 20.229 41.1032 18.4079 40.653C19.4045 41.4422 21.089 42.6765 18.8277 41.4877C18.5394 41.9177 20.4516 42.5703 20.9221 42.894ZM23.6387 44.4572C22.0198 43.152 26.942 45.5195 23.6387 44.4572V44.4572ZM37.5503 52.8801C37.095 53.4416 37.5908 52.2224 37.5503 52.8801V52.8801ZM38.9769 53.4821C39.7408 52.7435 39.0073 54.6608 40.2416 53.3C40.2568 52.3287 40.2062 51.752 38.8251 52.9357C38.4457 53.1482 38.2737 54.0436 38.9769 53.4821ZM16.2882 39.2315C14.6441 38.3158 16.0505 38.3108 16.2882 39.2315V39.2315ZM17.8109 40.2331C15.7874 39.3832 17.2443 39.2922 17.8109 40.2331V40.2331ZM26.4969 45.4689C27.3467 46.2227 30.3921 46.0204 27.5238 45.56C27.1039 44.9327 24.8325 45.0845 26.4969 45.4689ZM38.4356 52.8396C37.1709 53.3303 39.7357 51.7469 38.4356 52.8396V52.8396ZM41.1471 54.7063C40.5856 54.8581 41.1572 54.3572 41.1471 54.7063V54.7063ZM41.1522 54.2156C39.7509 54.3066 42.599 52.6828 41.1522 54.2156V54.2156ZM12.5296 36.09C11.3003 34.3346 11.7657 33.5454 10.5769 32.1087C10.3492 31.0109 8.53818 28.522 9.64099 31.1576C10.6477 32.7006 10.9462 35.0883 12.5296 36.09ZM40.6969 53.7299C39.6092 52.9812 43.3578 52.01 40.6969 53.7299V53.7299ZM42.7255 54.5242C41.8857 54.2864 44.061 53.3809 42.7255 54.5242V54.5242ZM15.8329 37.2889C14.8515 37.2181 16.2174 36.7223 15.8329 37.2889V37.2889ZM42.3056 53.9778C43.5956 53.1482 42.0071 53.2747 42.0729 54.0537L42.3056 53.9778ZM24.8123 42.9547C24.1294 43.0003 24.7668 42.3932 24.8123 42.9547V42.9547ZM25.8949 43.577C25.3637 43.6832 25.5458 42.8788 25.8949 43.577V43.577ZM44.3746 54.5394C46.0288 53.3455 43.373 54.3117 44.0306 54.767L44.3746 54.5394ZM43.7372 54.2358C42.3208 54.7366 45.0879 53.1077 43.7372 54.2358V54.2358ZM46.9698 56.3858C45.872 56.1936 47.8753 55.7838 46.9698 56.3858V56.3858ZM16.6626 36.8791C17.8716 37.1523 21.4988 39.8588 19.3589 37.0663C18.2612 36.7425 18.9188 34.0614 17.8008 34.5369C18.5495 35.7915 18.418 36.3227 16.8396 35.5335C14.8617 34.5673 15.7267 36.009 16.1162 36.4087C15.5901 36.5351 16.8194 36.869 16.6626 36.8791ZM11.1485 32.5235C11.366 31.6281 9.15029 27.5912 10.1013 30.5C10.4453 31.1121 10.4099 32.2655 11.1485 32.5235ZM21.2711 38.7661C20.6489 38.245 21.2408 38.6902 21.2711 38.7661V38.7661ZM22.804 39.1252C21.1093 38.7357 22.804 38.1742 22.804 39.1252V39.1252ZM36.1086 47.5076C35.1069 47.4975 35.8556 46.8601 36.1086 47.5076V47.5076ZM36.746 47.9781C36.3817 48.0489 36.6549 47.6139 36.746 47.9781V47.9781ZM42.0223 51.2967C41.3899 51.2511 42.5282 50.9223 42.0223 51.2967V51.2967ZM13.9005 33.2267C12.3474 32.827 15.3524 32.6652 13.9005 33.2267V33.2267ZM34.94 46.4807C34.0142 46.7134 34.9198 45.5398 34.94 46.4807V46.4807ZM13.3288 31.8912C12.4638 31.6838 14.2597 31.5775 13.3288 31.8912V31.8912ZM16.0302 33.2014C15.7469 33.3177 16.0151 32.8928 16.0302 33.2014V33.2014ZM49.0237 53.4315C50.2226 53.1887 52.9543 54.0436 53.3944 53.1128C51.9375 53.0774 48.361 52.0858 48.194 53.3455L48.5127 53.3961L49.0237 53.4315ZM16.8902 33.4189C16.1517 33.3835 16.9155 32.4679 16.8902 33.4189V33.4189ZM9.78264 28.4866C8.55335 28.2134 9.45888 26.6756 9.78264 28.4866V28.4866ZM11.4773 28.9115C9.92428 28.3905 11.4976 28.3298 11.4773 28.9115V28.9115ZM12.4436 29.3871C12.1653 29.1645 12.226 29.6754 12.4436 29.3871V29.3871ZM18.5445 33.2975C17.8615 33.1053 18.8328 33.0344 18.5445 33.2975V33.2975ZM11.8011 28.3146C9.83828 28.1122 11.6342 26.9437 11.8011 28.3146V28.3146ZM8.32571 26.0584C7.98677 26.2961 8.27512 25.426 8.32571 26.0584V26.0584ZM8.8417 25.6689C8.39653 25.765 8.7557 24.9202 8.8417 25.6689V25.6689ZM11.6999 27.3737C12.909 26.8981 9.49935 26.3923 11.452 27.2826L11.6999 27.3737ZM49.9393 50.9931C48.9579 50.7756 50.7133 50.2849 49.9393 50.9931V50.9931ZM54.558 53.391C53.7789 53.5074 54.8666 52.4754 54.558 53.391V53.391ZM11.9883 25.8763C11.0322 26.0533 12.1198 24.991 11.9883 25.8763V25.8763ZM7.92606 23.1546C7.70853 21.9051 7.73889 19.7045 9.82817 20.4482C7.04077 21.0046 11.7606 23.9135 11.1637 21.6168C12.3373 21.6724 13.4553 20.9237 12.8432 22.0619C15.1551 21.809 16.7536 19.8057 18.9846 20.0839C20.7248 19.8512 22.6218 19.6792 24.4936 18.9811C26.0315 18.8698 27.5137 17.2106 26.6739 16.2292C24.5745 16.0521 22.374 16.3152 20.057 16.7755C17.4872 17.3117 15.15 18.3235 12.5549 18.7636C10.0255 19.1025 13.0607 19.6995 12.3373 19.831C11.017 20.2863 13.9106 20.5999 12.1653 21.0805C11.0878 20.8731 9.96475 20.5038 10.4251 19.3707C8.00194 19.6843 5.8722 20.691 7.78948 23.1546H7.92606ZM13.7639 20.1801C14.3305 18.0857 16.8042 21.9001 14.6947 20.4583C14.4418 20.2661 14.027 20.1143 13.7639 20.1801ZM13.8752 19.1632C14.3103 19.5072 14.6947 18.5562 13.8752 19.1632V19.1632ZM14.9173 19.1835C14.9932 18.2223 17.3 19.6944 15.2967 19.5275L14.9173 19.1835ZM16.3388 18.6068C16.4906 19.1481 16.8599 17.9997 16.3388 18.6068V18.6068ZM16.7031 18.364C17.5681 17.3219 21.605 17.7013 18.6507 18.2628C17.8615 17.6658 17.2545 18.6169 16.7031 18.364ZM21.9743 17.5546C21.8428 14.7115 24.5948 18.5613 21.9743 17.5546V17.5546ZM23.4717 17.5444C24.0181 16.1128 25.5964 16.9677 23.7247 17.2561C23.7651 17.4079 23.669 17.9947 23.4717 17.5444ZM11.4014 25.1427C9.66629 24.2726 13.0354 24.1411 11.4014 25.1427V25.1427ZM12.6105 25.4766C11.366 25.2287 13.1821 24.8696 12.6105 25.4766V25.4766ZM9.04911 22.9523C7.9463 22.6791 9.98499 22.2339 9.04911 22.9523V22.9523ZM57.2847 53.128C56.5714 53.5023 57.3099 52.2933 57.2847 53.128V53.128ZM52.3827 49.7841C51.7554 49.865 52.5243 48.8229 52.3827 49.7841V49.7841ZM58.6353 53.4517C59.9405 53.4568 62.5913 53.047 59.7483 53.047C59.3031 53.1128 57.1531 53.1027 58.6353 53.4517ZM13.6728 24.8898C14.7301 24.819 15.3271 23.7263 13.4654 23.787C10.587 23.4885 16.0049 24.7734 13.0961 24.4042C12.7066 24.6622 13.6476 24.9606 13.6728 24.8898ZM14.6037 25.3603C14.2748 25.7194 14.4924 24.6824 14.6037 25.3603V25.3603ZM15.7065 22.4161C15.0691 22.2643 16.1618 21.8495 15.7065 22.4161V22.4161ZM12.1906 16.5479C14.0775 15.9054 16.6525 15.187 17.5428 16.8615C16.6373 15.7739 17.1786 14.6963 18.0335 16.2949C19.2426 17.9087 19.8496 15.5614 19.0605 15.0201C19.9559 16.133 20.9777 16.6592 19.6624 15.0909C21.0941 13.3709 16.7992 15.3186 15.8228 15.2983C15.3574 15.5057 10.9765 16.4113 12.1906 16.5479ZM13.2985 14.4333C14.376 13.6239 17.0167 14.9189 15.322 13.6289C15.1551 13.4772 11.6038 14.6053 13.2985 14.4333ZM17.2191 14.5952C18.4787 14.6255 16.6778 12.9055 18.1752 13.6846C17.9273 12.8802 16.4299 12.7285 15.6964 12.4098C15.2815 13.1433 16.5361 14.6053 17.2191 14.5952ZM13.9865 11.0338C13.2226 11.3373 14.4215 10.447 13.9865 11.0338V11.0338ZM15.5851 11.4182C17.6136 11.1501 15.0691 10.5481 15.1753 11.398L15.5851 11.4182ZM12.5953 9.08109C11.1687 7.21439 15.2815 9.39473 13.8297 7.44204C12.6105 6.47075 11.4369 8.53474 12.5953 9.08109ZM30.9132 18.9457C31.5658 17.7873 28.2118 17.3826 30.4731 18.536C30.6855 18.6068 30.635 19.0267 30.9132 18.9457Z" fill="white"/>
</svg>
