<svg width="58" height="59" viewBox="0 0 58 59" fill="none" xmlns="http://www.w3.org/2000/svg">
<path d="M55.7597 26.9976L31.1306 2.36941C29.7132 0.951081 27.4128 0.951081 25.9931 2.36941L20.8792 7.48417L27.3667 13.9717C28.8749 13.4627 30.6033 13.8041 31.8049 15.0057C33.0128 16.2149 33.3515 17.9581 32.83 19.4712L39.0825 25.7241C40.5951 25.2026 42.341 25.5395 43.5484 26.7496C45.2375 28.4374 45.2375 31.1735 43.5484 32.8622C43.147 33.2638 42.6704 33.5824 42.1458 33.7998C41.6213 34.0171 41.059 34.129 40.4912 34.129C39.9234 34.129 39.3612 34.0171 38.8366 33.7998C38.312 33.5824 37.8354 33.2638 37.434 32.8622C36.8309 32.2588 36.4198 31.4904 36.2525 30.6538C36.0851 29.8172 36.1689 28.9498 36.4934 28.1608L30.6628 22.3302L30.6619 37.6758C31.0849 37.8841 31.4711 38.16 31.8054 38.4926C33.4936 40.1804 33.4936 42.9157 31.8054 44.607C30.1167 46.2948 27.3797 46.2948 25.6928 44.607C24.0046 42.9161 24.0046 40.1809 25.6928 38.4926C26.0973 38.0875 26.5784 37.767 27.108 37.5498V22.0621C26.5779 21.8454 26.0967 21.5247 25.6928 21.1187C24.4139 19.8407 24.106 17.9639 24.762 16.3928L18.3661 9.99686L1.47837 26.8837C0.79705 27.5652 0.414307 28.4894 0.414307 29.4531C0.414307 30.4168 0.79705 31.341 1.47837 32.0226L26.1079 56.6508C27.5263 58.0691 29.8258 58.0691 31.2464 56.6508L55.7602 32.137C56.4414 31.4552 56.824 30.5309 56.8239 29.5672C56.8238 28.6035 56.441 27.6792 55.7597 26.9976Z" fill="#F34F29"/>
</svg>
