<svg width="56" height="56" viewBox="0 0 56 56" fill="none" xmlns="http://www.w3.org/2000/svg">
<path d="M1.33813 1.08081H55.1669V54.91H1.33813V1.08081Z" fill="#F0DB4F"/>
<path d="M50.7615 42.0716C50.3672 39.6158 48.7659 37.5531 44.0226 35.6298C42.3748 34.8725 40.5379 34.3303 39.9905 33.0816C39.7961 32.3549 39.7703 31.9456 39.8933 31.5057C40.2464 30.0781 41.9504 29.633 43.301 30.0424C44.1709 30.3339 44.9944 31.0043 45.491 32.0737C47.8139 30.5696 47.8091 30.5795 49.4311 29.5457C48.8373 28.6251 48.5204 28.2003 48.1316 27.8064C46.7346 26.2459 44.831 25.4423 41.7866 25.5038L40.2008 25.7089C38.6812 26.0929 37.2329 26.8905 36.3837 27.9599C33.8355 30.8512 34.5622 35.9114 37.6629 37.9939C40.7176 40.2866 45.2051 40.8082 45.7783 42.9522C46.336 45.5769 43.8493 46.4266 41.3777 46.1247C39.5562 45.7459 38.5431 44.8201 37.4479 43.1367C35.4321 44.3032 35.4321 44.3032 33.3595 45.4952C33.851 46.5697 34.3674 47.0561 35.1913 47.987C39.0905 51.9421 48.848 51.7478 50.5981 45.7614C50.669 45.5558 51.1403 44.185 50.7615 42.0716ZM30.6011 25.8207H25.5663L25.5456 38.8375C25.5456 41.6059 25.6888 44.1437 25.2386 44.9216C24.502 46.4515 22.5933 46.2619 21.7234 45.9652C20.838 45.53 20.3878 44.9113 19.8662 44.0366C19.723 43.7855 19.6155 43.5912 19.5794 43.5761L15.4858 46.083C16.1665 47.4801 17.1693 48.6926 18.4537 49.4804C20.3723 50.6319 22.951 50.985 25.648 50.3658C27.4032 49.8545 28.9177 48.7954 29.7106 47.1834C30.8569 45.0699 30.611 42.5119 30.6007 39.6825C30.6265 35.0665 30.6011 30.4513 30.6011 25.8207Z" fill="#323330"/>
</svg>
