<svg width="62" height="62" viewBox="0 0 62 62" fill="none" xmlns="http://www.w3.org/2000/svg">
<path d="M30.4648 5.88612C28.4357 5.89574 26.499 6.06827 24.7939 6.37007C19.7718 7.25723 18.8606 9.11421 18.8606 12.5393V17.0621H30.7276V18.5697H14.4065C10.9578 18.5697 7.93783 20.6425 6.993 24.5871C5.90304 29.107 5.85498 31.9281 6.993 36.6479C7.83643 40.1614 9.85104 42.6643 13.3002 42.6643H17.3808V37.2424C17.3808 33.3251 20.7694 29.8702 24.7943 29.8702H36.648C39.9477 29.8702 42.5813 27.153 42.5813 23.8398V12.5398C42.5813 9.32327 39.8679 6.90737 36.648 6.37055C34.6084 6.03126 32.4933 5.87699 30.4648 5.88612ZM24.047 9.52367C25.2725 9.52367 26.2741 10.5411 26.2741 11.7925C26.2741 13.0387 25.273 14.0465 24.047 14.0465C22.8167 14.0465 21.8205 13.0387 21.8205 11.7925C21.82 10.5411 22.8167 9.52367 24.047 9.52367Z" fill="url(#paint0_linear_14_49)"/>
<path d="M44.061 18.5698V23.8399C44.061 27.9249 40.5969 31.3635 36.6475 31.3635H24.7938C21.547 31.3635 18.8605 34.1427 18.8605 37.3943V48.6953C18.8605 51.9109 21.6566 53.8029 24.7938 54.7252C28.5501 55.8291 32.1525 56.029 36.6475 54.7252C39.6348 53.8596 42.5808 52.119 42.5808 48.6953V44.172H30.7276V42.6639H48.515C51.9637 42.6639 53.2497 40.2586 54.4493 36.6475C55.6882 32.9302 55.6349 29.3551 54.4493 24.5867C53.5967 21.153 51.969 18.5693 48.515 18.5693H44.061V18.5698ZM37.3938 47.1872C38.6246 47.1872 39.6208 48.195 39.6208 49.4421C39.6208 50.6926 38.6241 51.71 37.3938 51.71C36.1683 51.71 35.1673 50.6926 35.1673 49.4421C35.1673 48.195 36.1683 47.1872 37.3938 47.1872Z" fill="url(#paint1_linear_14_49)"/>
<path opacity="0.444" d="M46.7652 57.4765C46.7652 59.1792 39.6449 60.5599 30.8622 60.5599C22.079 60.5599 14.9587 59.1792 14.9587 57.4765C14.9587 55.7733 22.0785 54.3926 30.8622 54.3926C39.6449 54.3926 46.7652 55.7728 46.7652 57.4765Z" fill="url(#paint2_radial_14_49)"/>
<defs>
<linearGradient id="paint0_linear_14_49" x1="4.96776" y1="7.30031" x2="32.3389" y2="30.6423" gradientUnits="userSpaceOnUse">
<stop stop-color="#5A9FD4"/>
<stop offset="1" stop-color="#306998"/>
</linearGradient>
<linearGradient id="paint1_linear_14_49" x1="42.6369" y1="45.1521" x2="32.8212" y2="31.3871" gradientUnits="userSpaceOnUse">
<stop stop-color="#FFD43B"/>
<stop offset="1" stop-color="#FFE873"/>
</linearGradient>
<radialGradient id="paint2_radial_14_49" cx="0" cy="0" r="1" gradientUnits="userSpaceOnUse" gradientTransform="translate(30.7979 57.3882) rotate(-90) scale(3.08455 13.5592)">
<stop stop-color="#B8B8B8" stop-opacity="0.498"/>
<stop offset="1" stop-color="#7F7F7F" stop-opacity="0"/>
</radialGradient>
</defs>
</svg>
