<svg width="64" height="65" viewBox="0 0 64 65" fill="none" xmlns="http://www.w3.org/2000/svg">
<path d="M34.7409 49.929C34.7116 49.5659 34.6942 49.3321 34.6942 49.3321C34.6942 49.3321 33.5968 41.9256 32.2885 39.7144C32.0826 39.3627 32.3099 37.9266 32.8889 35.7945C33.2272 36.3761 34.6499 38.8747 34.9374 39.6796C35.2598 40.5869 35.3254 40.8471 35.3254 40.8471C35.3254 40.8471 34.5444 36.8267 33.264 34.4813C33.5752 33.4358 33.9076 32.3968 34.2609 31.3648C34.7449 32.2154 35.9089 34.2793 36.1651 34.9961C36.2159 35.1419 36.2606 35.2663 36.2994 35.3812C36.3109 35.313 36.3243 35.2449 36.3363 35.1752C36.0428 33.9296 35.4657 31.7627 34.6768 30.16C36.4278 21.0427 42.4026 8.85727 48.5257 3.42017H8.5752C5.89545 3.42017 3.70569 5.61192 3.70569 8.28968V52.3486C3.70569 55.0264 5.89744 57.2181 8.5757 57.2181H34.8892C34.6898 54.7939 34.6405 52.3598 34.7414 49.9295" fill="#0B7FCC"/>
<path d="M32.8889 35.7945C33.2272 36.3755 34.6499 38.8727 34.9369 39.6791C35.2597 40.5864 35.3254 40.8466 35.3254 40.8466C35.3254 40.8466 34.5444 36.8262 33.264 34.4807C33.5754 33.4345 33.9078 32.3947 34.2609 31.3617C34.7021 32.1412 35.7144 33.933 36.0775 34.7802L36.1183 34.3022C35.796 33.0605 35.306 31.4339 34.6767 30.1594C36.2895 21.767 41.4818 10.7739 47.0761 4.84033H8.57467C7.66018 4.84112 6.78338 5.20471 6.13669 5.85131C5.49001 6.4979 5.12629 7.37465 5.12537 8.28913V49.1345C13.8441 45.7862 24.3587 42.7274 33.4077 42.8597C33.0735 41.5639 32.6909 40.3924 32.2885 39.7139C32.0825 39.3622 32.3099 37.9246 32.8889 35.7945Z" fill="url(#paint0_linear_15_118)"/>
<path d="M57.8473 1.97728C55.1114 -0.463198 51.7964 0.518266 48.5281 3.41938C48.0234 3.87094 47.5397 4.34551 47.0786 4.84158C41.4823 10.7741 36.2919 21.7662 34.6792 30.1592C35.307 31.4341 35.7985 33.0603 36.1188 34.3019C36.2024 34.6203 36.278 34.9197 36.3387 35.1744C36.4805 35.7749 36.5561 36.1673 36.5561 36.1673C36.5561 36.1673 36.5058 35.9768 36.2999 35.3804C36.2611 35.266 36.2163 35.1396 36.1656 34.9958C36.1442 34.9337 36.1133 34.8596 36.08 34.78C35.7149 33.9328 34.7046 32.141 34.2614 31.364C33.8823 32.4832 33.5465 33.5329 33.2645 34.4805C34.5469 36.826 35.3284 40.8463 35.3284 40.8463C35.3284 40.8463 35.2602 40.5862 34.9394 39.6788C34.6518 38.8725 33.2277 36.3758 32.8914 35.7943C32.3123 37.9238 32.083 39.3619 32.291 39.7141C32.6934 40.3917 33.0739 41.5656 33.4102 42.8595C34.1683 45.778 34.6966 49.3323 34.6966 49.3323C34.6966 49.3323 34.712 49.5656 34.7434 49.9292C34.6424 52.3593 34.6918 54.7933 34.8911 57.2173C35.1418 60.2567 35.6139 62.8698 36.2163 64.2671L36.6282 64.0438C35.7422 61.2904 35.3826 57.6799 35.5398 53.5198C35.7786 47.1559 37.2421 39.4843 39.9452 31.4883C44.5172 19.4153 50.8582 9.73099 56.6604 5.10622C51.3711 9.88271 44.2128 25.3444 42.0693 31.0705C39.6716 37.4831 37.9713 43.4987 36.9451 49.2641C38.711 43.8604 44.4302 41.5388 44.4302 41.5388C44.4302 41.5388 47.2343 38.0775 50.5125 33.1379C48.5475 33.5871 45.3241 34.3526 44.2456 34.8053C42.6538 35.4739 42.2225 35.7007 42.2225 35.7007C42.2225 35.7007 47.3815 32.5608 51.8083 31.1386C57.8941 21.5528 64.5241 7.93371 57.8478 1.97778" fill="#003956"/>
<defs>
<linearGradient id="paint0_linear_15_118" x1="29.3138" y1="5.74281" x2="29.3138" y2="46.6691" gradientUnits="userSpaceOnUse">
<stop stop-color="#95D7F4"/>
<stop offset="0.92" stop-color="#0F7FCC"/>
<stop offset="1" stop-color="#0F7FCC"/>
</linearGradient>
</defs>
</svg>
