<svg width="54" height="55" viewBox="0 0 54 55" fill="none" xmlns="http://www.w3.org/2000/svg">
<path d="M1.54121 19.8996C1.54121 19.8996 0.265129 18.9759 1.79836 17.7441L5.36818 14.5427C5.36818 14.5427 6.3909 13.464 7.47137 14.4045L40.4273 39.4151V51.4087C40.4273 51.4087 40.4108 53.2922 38.0003 53.0848L1.54121 19.8996Z" fill="#2489CA"/>
<path d="M10.037 27.6292L1.54122 35.3704C1.54122 35.3704 0.668581 36.0208 1.54122 37.1852L5.48539 40.7799C5.48539 40.7799 6.42211 41.7895 7.80737 40.6416L16.8116 33.7962L10.037 27.6292Z" fill="#1070B3"/>
<path d="M24.9499 27.6935L40.528 15.7695L40.4273 3.84046C40.4273 3.84046 39.762 1.23687 37.5425 2.59305L16.8116 21.5049L24.9499 27.6935Z" fill="#0877B9"/>
<path d="M37.9999 53.0993C38.9042 54.028 40.0011 53.7232 40.0011 53.7232L52.1409 47.7277C53.6952 46.6654 53.4777 45.348 53.4777 45.348V9.53806C53.4777 7.96352 51.8707 7.42012 51.8707 7.42012L41.348 2.33562C39.0492 0.911146 37.5425 2.59277 37.5425 2.59277C37.5425 2.59277 39.4788 1.19444 40.4273 3.84061V51.1896C40.4273 51.5155 40.3582 51.8346 40.2199 52.1229C39.9434 52.6845 39.3405 53.2064 37.8996 52.9876L37.9999 53.0993Z" fill="#3C99D4"/>
</svg>
