<svg width="1000" height="1000" viewBox="0 0 1000 1000" fill="none" xmlns="http://www.w3.org/2000/svg">
<rect width="1000" height="1000" fill="white"/>
<g filter="url(#filter0_d_7_148)">
<path d="M885.5 753V200H644.5V491" stroke="#D8584F" stroke-width="30" stroke-linecap="round"/>
<path d="M613.5 572H723.5V280H806.5V754H661" stroke="#D8584F" stroke-width="30" stroke-linecap="round"/>
<path d="M557.5 484C557.5 416.829 557.5 355.668 557.5 280H517" stroke="#D8584F" stroke-width="30" stroke-linecap="round"/>
<path d="M483.5 200L558 200" stroke="#D8584F" stroke-width="30" stroke-linecap="round"/>
<path d="M648 664.5C681.976 664.695 701.024 664.805 735 665" stroke="#D8584F" stroke-width="30" stroke-linecap="round"/>
</g>
<g filter="url(#filter1_d_7_148)">
<path d="M109 832C225 633.5 241 512.5 109.5 266.5C92.5002 215.5 133 203.5 173 207.5C240.5 220.5 276.5 250.5 285.5 263.5M404.5 389.5C588.46 460.295 663.5 634.7 652.5 828M109.5 831H891" stroke="black" stroke-width="30" stroke-linecap="round"/>
<path d="M408.5 389.5C471.46 389.5 510 347.513 510 284C510 220.487 458.96 169 396 169C333.04 169 287 200.987 287 264.5" stroke="black" stroke-width="30" stroke-linecap="round"/>
<ellipse cx="233.251" cy="328.644" rx="23.0695" ry="33.4708" transform="rotate(35.6391 233.251 328.644)" fill="black"/>
</g>
<defs>
<filter id="filter0_d_7_148" x="468.5" y="185" width="437" height="589" filterUnits="userSpaceOnUse" color-interpolation-filters="sRGB">
<feFlood flood-opacity="0" result="BackgroundImageFix"/>
<feColorMatrix in="SourceAlpha" type="matrix" values="0 0 0 0 0 0 0 0 0 0 0 0 0 0 0 0 0 0 127 0" result="hardAlpha"/>
<feOffset dx="5" dy="5"/>
<feComposite in2="hardAlpha" operator="out"/>
<feColorMatrix type="matrix" values="0 0 0 0 0.584314 0 0 0 0 0.6 0 0 0 0 0.533333 0 0 0 1 0"/>
<feBlend mode="normal" in2="BackgroundImageFix" result="effect1_dropShadow_7_148"/>
<feBlend mode="normal" in="SourceGraphic" in2="effect1_dropShadow_7_148" result="shape"/>
</filter>
<filter id="filter1_d_7_148" x="90.5176" y="154" width="820.482" height="698.002" filterUnits="userSpaceOnUse" color-interpolation-filters="sRGB">
<feFlood flood-opacity="0" result="BackgroundImageFix"/>
<feColorMatrix in="SourceAlpha" type="matrix" values="0 0 0 0 0 0 0 0 0 0 0 0 0 0 0 0 0 0 127 0" result="hardAlpha"/>
<feOffset dx="5" dy="5"/>
<feComposite in2="hardAlpha" operator="out"/>
<feColorMatrix type="matrix" values="0 0 0 0 0.584314 0 0 0 0 0.6 0 0 0 0 0.533333 0 0 0 1 0"/>
<feBlend mode="normal" in2="BackgroundImageFix" result="effect1_dropShadow_7_148"/>
<feBlend mode="normal" in="SourceGraphic" in2="effect1_dropShadow_7_148" result="shape"/>
</filter>
</defs>
</svg>
